<?xml version="1.0" encoding="UTF-8" standalone="no" ?>
<!DOCTYPE svg PUBLIC "-//W3C//DTD SVG 1.1//EN" "http://www.w3.org/Graphics/SVG/1.1/DTD/svg11.dtd">
<svg xmlns="http://www.w3.org/2000/svg" xmlns:xlink="http://www.w3.org/1999/xlink" version="1.1" width="110" height="32" viewBox="0 0 110 32" xml:space="preserve">
<desc>Created with Fabric.js 3.6.6</desc>
<defs>
</defs>
<g transform="matrix(0.28 0 0 0.28 18.14 15.81)"  >
<path style="stroke: none; stroke-width: 1; stroke-dasharray: none; stroke-linecap: butt; stroke-dashoffset: 0; stroke-linejoin: miter; stroke-miterlimit: 4; fill: rgb(0,0,0); fill-rule: nonzero; opacity: 1;"  transform=" translate(-61.44, -50.68)" d="M 12.64 77.27 l 0.31 -54.92 h -6.2 v 69.88 c 8.52 -2.2 17.07 -3.6 25.68 -3.66 c 7.95 -0.05 15.9 1.06 23.87 3.76 c -4.95 -4.01 -10.47 -6.96 -16.36 -8.88 c -7.42 -2.42 -15.44 -3.22 -23.66 -2.52 c -1.86 0.15 -3.48 -1.23 -3.64 -3.08 C 12.62 77.65 12.62 77.46 12.64 77.27 L 12.64 77.27 z M 103.62 19.48 c -0.02 -0.16 -0.04 -0.33 -0.04 -0.51 c 0 -0.17 0.01 -0.34 0.04 -0.51 V 7.34 c -7.8 -0.74 -15.84 0.12 -22.86 2.78 c -6.56 2.49 -12.22 6.58 -15.9 12.44 V 85.9 c 5.72 -3.82 11.57 -6.96 17.58 -9.1 c 6.85 -2.44 13.89 -3.6 21.18 -3.02 V 19.48 L 103.62 19.48 z M 110.37 15.6 h 9.14 c 1.86 0 3.37 1.51 3.37 3.37 v 77.66 c 0 1.86 -1.51 3.37 -3.37 3.37 c -0.38 0 -0.75 -0.06 -1.09 -0.18 c -9.4 -2.69 -18.74 -4.48 -27.99 -4.54 c -9.02 -0.06 -18.03 1.53 -27.08 5.52 c -0.56 0.37 -1.23 0.57 -1.92 0.56 c -0.68 0.01 -1.35 -0.19 -1.92 -0.56 c -9.04 -4 -18.06 -5.58 -27.08 -5.52 c -9.25 0.06 -18.58 1.85 -27.99 4.54 c -0.34 0.12 -0.71 0.18 -1.09 0.18 C 1.51 100.01 0 98.5 0 96.64 V 18.97 c 0 -1.86 1.51 -3.37 3.37 -3.37 h 9.61 l 0.06 -11.26 c 0.01 -1.62 1.15 -2.96 2.68 -3.28 l 0 0 c 8.87 -1.85 19.65 -1.39 29.1 2.23 c 6.53 2.5 12.46 6.49 16.79 12.25 c 4.37 -5.37 10.21 -9.23 16.78 -11.72 c 8.98 -3.41 19.34 -4.23 29.09 -2.8 c 1.68 0.24 2.88 1.69 2.88 3.33 h 0 V 15.6 L 110.37 15.6 z M 68.13 91.82 c 7.45 -2.34 14.89 -3.3 22.33 -3.26 c 8.61 0.05 17.16 1.46 25.68 3.66 V 22.35 h -5.77 v 55.22 c 0 1.86 -1.51 3.37 -3.37 3.37 c -0.27 0 -0.53 -0.03 -0.78 -0.09 c -7.38 -1.16 -14.53 -0.2 -21.51 2.29 C 79.09 85.15 73.57 88.15 68.13 91.82 L 68.13 91.82 z M 58.12 85.25 V 22.46 c -3.53 -6.23 -9.24 -10.4 -15.69 -12.87 c -7.31 -2.8 -15.52 -3.43 -22.68 -2.41 l -0.38 66.81 c 7.81 -0.28 15.45 0.71 22.64 3.06 C 47.73 78.91 53.15 81.64 58.12 85.25 L 58.12 85.25 z" stroke-linecap="round" />
</g>
<g transform="matrix(0.55 0 0 0.55 104.58 16.27)" style=""  >
		<text xml:space="preserve" font-family="'Open Sans', sans-serif" font-size="18" font-style="normal" font-weight="bold" style="stroke: none; stroke-width: 1; stroke-dasharray: none; stroke-linecap: butt; stroke-dashoffset: 0; stroke-linejoin: miter; stroke-miterlimit: 4; fill: rgb(0,0,0); fill-rule: nonzero; opacity: 1; white-space: pre;" ><tspan x="-115.44" y="-6.14" style="font-weight: bold; white-space: pre; ">Kníhkupectvo </tspan><tspan x="-115.44" y="17.45" style="font-weight: bold; ">Knihomoľ</tspan></text>
</g>
</svg>