<svg xmlns="http://www.w3.org/2000/svg" version="1.1" width="841.89pt" height="595.28pt" viewBox="0 0 841.89 595.28">
<defs>
<clipPath id="clip_0">
<path transform="matrix(1,0,0,-1,0,595.28)" d="M0 595.28H841.89V0H0Z"/>
</clipPath>
</defs>
<g id="layer_1">
<g clip-path="url(#clip_0)">
<path transform="matrix(1,0,0,-1,157.3135,370.8864)" d="M0 0-1.9-4.849C-4.523-4.128-7.437-3.769-10.634-3.769-15.809-3.769-18.399-4.836-18.399-6.963-18.399-7.795-17.839-8.505-16.725-9.124-15.741-9.675-13.811-10.377-10.953-11.239-4.336-13.229-1.038-16.076-1.038-19.769-1.038-25.889-7.223-28.942-19.622-28.942-23.509-28.942-27.085-28.609-30.355-27.936L-28.061-23.069C-24.905-23.886-21.862-24.29-18.912-24.29-16.122-24.29-14.054-24.145-12.727-23.853-10.361-23.346-9.181-22.354-9.181-20.892-9.181-19.926-9.824-19.069-11.118-18.316-12.277-17.63-14.402-16.798-17.496-15.801-23.427-13.893-26.392-11.244-26.392-7.852-26.392-4.83-24.854-2.644-21.783-1.299-18.712 .045-14.766 .721-9.959 .721-5.963 .721-2.647 .483 0 0" fill="#030505"/>
<path transform="matrix(1,0,0,-1,194.5859,370.62776)" d="M0 0-.935-4.69C-4.995-4.465-8.814-4.364-12.409-4.364-12.655-5.681-13.162-8.751-13.915-13.55-14.799-19.183-15.339-24.132-15.559-28.414H-24.449C-24.009-26.306-23.096-21.349-21.748-13.55-21.231-10.25-20.799-7.177-20.452-4.364-23.332-4.364-27.306-4.477-32.379-4.714L-31.379 0Z" fill="#030505"/>
<path transform="matrix(1,0,0,-1,233.2812,370.62776)" d="M0 0C-.389-2.013-1.223-6.908-2.511-14.666-4.016-24.331-10.313-29.163-21.391-29.163-26.139-29.163-29.77-28.375-32.292-26.799-34.8-25.229-36.048-22.315-36.048-18.068-36.048-17.136-35.969-16.075-35.792-14.861-35.082-10.278-34.507-5.323-34.055 0H-25.069C-25.559-2.282-26.432-7.03-27.672-14.22-27.868-15.476-27.962-16.685-27.962-17.833-27.962-20.42-27.353-22.198-26.114-23.191-24.876-24.188-23.014-24.684-20.521-24.684-17.518-24.684-15.178-23.971-13.49-22.558-11.825-21.135-10.661-18.344-10.026-14.183-9.295-9.405-8.807-4.681-8.576 0Z" fill="#030505"/>
<path transform="matrix(1,0,0,-1,261.9609,377.91874)" d="M0 0C0 2.218-2.112 3.332-6.324 3.332-8.422 3.332-10.38 3.212-12.186 2.995-12.186 2.398-12.488-.128-13.087-4.572-12.118-4.612-11.208-4.623-10.349-4.623-3.457-4.623 0-3.082 0 0M.347-12.259C.347-9.73-3.011-8.471-9.735-8.471-11.13-8.471-12.457-8.506-13.705-8.572-14.179-11.616-14.526-14.41-14.765-16.977-13.861-17.094-12.729-17.147-11.347-17.147-7.163-17.147-4.163-16.759-2.359-15.971-.554-15.188 .347-13.951 .347-12.259M8.627-11.958C8.627-18.152 1.53-21.252-12.703-21.252-15-21.252-18.677-21.207-23.747-21.123-23.326-19.132-22.427-14.176-21.074-6.259-20.261-.956-19.797 3.557-19.69 7.291H-14.407C-13.48 7.291-11.851 7.314-9.51 7.36-7.17 7.409-5.379 7.427-4.131 7.427-.261 7.427 2.81 6.937 5.09 5.952 7.362 4.975 8.5 3.521 8.5 1.598 8.5-.031 7.751-1.484 6.267-2.766 4.769-4.051 2.857-4.883 .518-5.275L.481-5.601C2.622-5.85 4.526-6.503 6.163-7.57 7.808-8.634 8.627-10.091 8.627-11.958" fill="#030505"/>
<path transform="matrix(1,0,0,-1,297.8096,386.7155)" d="M0 0C-2.226 7.471-3.346 11.534-3.346 12.185H-3.831C-3.913 11.686-6.349 7.616-11.143 0ZM12.249-12.326H2.454C2.454-10.74 1.937-8.016 .902-4.164H-13.202C-13.98-5.401-14.646-6.516-15.203-7.521-16.576-9.912-17.304-11.515-17.364-12.326H-26.579C-26.517-11.792-23.408-7.128-17.265 1.655-11.118 10.435-7.979 15.252-7.858 16.088H3.674C3.674 14.445 5.104 9.743 7.961 1.968 10.819-5.8 12.249-10.565 12.249-12.326" fill="#030505"/>
<path transform="matrix(1,0,0,-1,375.8418,384.8933)" d="M0 0C-.236-1.034-.663-3.302-1.291-6.769-1.552-8.415-1.708-10.627-1.766-13.41-6.952-14.283-11.171-14.737-14.431-14.737-20.835-14.737-25.661-13.489-28.931-11.002-32.198-8.518-33.83-5.48-33.83-1.879-33.83 2.836-31.447 6.763-26.674 9.917-21.905 13.085-15.997 14.665-8.953 14.665-5.667 14.665-2.799 14.445-.359 14.031L-2.158 8.878C-5.247 9.475-8.075 9.771-10.629 9.771-15.099 9.771-18.624 8.709-21.212 6.564-23.807 4.421-25.095 1.788-25.095-1.338-25.095-3.848-24.077-5.986-22.03-7.718-19.965-9.458-17.032-10.323-13.208-10.323-12.048-10.323-10.675-10.238-9.085-10.07-9.105-9.809-9.113-9.306-9.113-8.584-9.113-7.897-9.039-6.616-8.871-4.715-8.713-2.828-8.639-1.25-8.639 0Z" fill="#030505"/>
<path transform="matrix(1,0,0,-1,405.6704,378.27613)" d="M0 0C0 2.441-2.397 3.661-7.177 3.661-9.093 3.661-10.77 3.554-12.207 3.353-12.314 2.075-12.681-.862-13.298-5.464-12.186-5.492-11.24-5.503-10.463-5.503-3.489-5.503 0-3.674 0 0M8.667-20.766H-.315C-1.842-15.765-3.239-12.613-4.52-11.332-5.808-10.055-7.833-9.417-10.634-9.417-11.49-9.417-12.592-9.425-13.94-9.441-14.565-13.471-14.953-17.244-15.106-20.766H-23.897C-23.471-18.774-22.581-13.818-21.228-5.901-20.412-.599-19.945 3.914-19.809 7.648H-14.24C-13.616 7.648-12.322 7.672-10.373 7.718-8.404 7.767-6.604 7.784-4.952 7.784-1.149 7.784 1.968 7.233 4.419 6.142 6.87 5.062 8.093 3.43 8.093 1.281 8.093-.563 7.234-2.207 5.519-3.612 3.802-5.035 1.576-6.054-1.149-6.639L-1.18-6.965C.763-7.36 2.454-8.559 3.87-10.545 5.289-12.547 6.898-15.943 8.667-20.766" fill="#030505"/>
<path transform="matrix(1,0,0,-1,449.3984,370.62776)" d="M0 0-1.006-4.775C-7.037-4.538-12.545-4.428-17.529-4.428-17.683-5.984-17.956-8.37-18.366-11.582-14.115-11.582-9.56-11.503-4.678-11.351L-5.418-15.909C-10.119-15.762-14.654-15.689-19.008-15.689-19.457-18.644-19.83-21.41-20.104-23.981-14.518-23.981-8.533-23.857-2.133-23.609L-3.168-28.414H-29.193C-28.729-26.423-27.84-21.467-26.486-13.55-25.67-8.247-25.209-3.734-25.094 0Z" fill="#030505"/>
<path transform="matrix(1,0,0,-1,482.6113,370.62776)" d="M0 0-1.002-4.775C-7.031-4.538-12.545-4.428-17.521-4.428-17.667-5.984-17.965-8.37-18.356-11.582-14.115-11.582-9.545-11.503-4.67-11.351L-5.411-15.909C-10.109-15.762-14.649-15.689-19.002-15.689-19.458-18.644-19.83-21.41-20.1-23.981-14.519-23.981-8.533-23.857-2.119-23.609L-3.148-28.414H-29.189C-28.738-26.423-27.83-21.467-26.488-13.55-25.67-8.247-25.207-3.734-25.109 0Z" fill="#030505"/>
<path transform="matrix(1,0,0,-1,523.875,370.62776)" d="M0 0C-.381-1.599-1.217-6.107-2.504-13.55-3.363-19.024-4.006-23.977-4.409-28.414H-11.949C-11.949-27.717-14.357-24.369-19.194-18.373-24.225-12.128-27.002-8-27.541-5.951H-28.016C-27.791-7.059-27.674-8.174-27.674-9.291-27.674-10.992-27.858-13.072-28.251-15.516-28.808-19.093-29.293-23.396-29.691-28.414H-37.207C-36.758-26.359-35.854-21.41-34.5-13.55-33.688-8.24-33.234-3.724-33.145 0H-23.746C-23.746-.956-21.569-4.257-17.229-9.9-12.655-15.841-10.119-19.718-9.631-21.533H-9.182C-9.434-20.69-9.57-19.8-9.57-18.856-9.57-16.841-9.356-14.524-8.95-11.892-8.305-7.684-7.943-3.724-7.852 0Z" fill="#030505"/>
<path transform="matrix(1,0,0,-1,589.6445,370.62776)" d="M0 0-.938-4.69C-5.001-4.465-8.829-4.364-12.411-4.364-12.674-5.681-13.177-8.751-13.923-13.55-14.814-19.183-15.354-24.132-15.578-28.414H-24.456C-24.007-26.306-23.104-21.349-21.766-13.55-21.239-10.25-20.8-7.177-20.461-4.364-23.353-4.364-27.316-4.477-32.386-4.714L-31.388 0Z" fill="#030505"/>
<path transform="matrix(1,0,0,-1,620.5283,370.62776)" d="M0 0-.995-4.775C-7.038-4.538-12.545-4.428-17.518-4.428-17.683-5.984-17.953-8.37-18.363-11.582-14.104-11.582-9.545-11.503-4.663-11.351L-5.408-15.909C-10.11-15.762-14.644-15.689-18.999-15.689-19.448-18.644-19.818-21.41-20.1-23.981-14.521-23.981-8.513-23.857-2.119-23.609L-3.158-28.414H-29.187C-28.729-26.423-27.834-21.467-26.469-13.55-25.658-8.247-25.197-3.734-25.095 0Z" fill="#030505"/>
<path transform="matrix(1,0,0,-1,646.542,386.7155)" d="M0 0C-2.247 7.471-3.35 11.534-3.35 12.185H-3.845C-3.934 11.686-6.373 7.616-11.157 0ZM12.234-12.326H2.437C2.437-10.74 1.924-8.016 .898-4.164H-13.216C-13.992-5.401-14.657-6.516-15.217-7.521-16.591-9.912-17.311-11.515-17.379-12.326H-26.592C-26.523-11.792-23.421-7.128-17.279 1.655-11.123 10.435-7.996 15.252-7.873 16.088H3.668C3.668 14.445 5.092 9.743 7.955 1.968 10.805-5.8 12.234-10.565 12.234-12.326" fill="#030505"/>
<path transform="matrix(1,0,0,-1,710.4531,370.62776)" d="M0 0C-.72-4.146-1.071-9.326-1.071-15.537-1.071-19.619-.909-23.92-.585-28.414H-9.767C-9.767-22.372-9.118-14.503-7.818-4.803H-8.351C-8.665-5.715-9.359-7.199-10.409-9.26-11.453-11.302-13.57-14.766-16.719-19.655-19.88-24.532-21.534-27.451-21.68-28.414H-28.669C-28.669-27.266-29.485-24.234-31.097-19.335-32.731-14.433-33.704-11.25-34.04-9.797-34.372-8.335-34.665-6.671-34.925-4.803H-35.407C-35.678-6.469-36.562-10.644-38.052-17.327-39.536-24.002-40.28-27.699-40.28-28.414H-48.583C-48.583-28.021-47.198-23.515-44.432-14.886-41.663-6.266-40.144-1.298-39.888 0H-28.162C-28.162-1.991-27.373-5.592-25.8-10.807-24.213-16.031-23.425-19.565-23.425-21.455H-22.939C-22.729-20.037-20.86-16.436-17.35-10.644-13.841-4.854-11.981-1.298-11.804 0Z" fill="#030505"/>
<path transform="matrix(1,0,0,-1,92.187,355.45484)" d="M0 0C19.4-.921 35.703-1.399 52.985-1.097 61.669-.896 70.449-.647 80.383 .579 85.559 1.357 92.414 3.19 96.685 10.024 101.062 17.23 97.591 26.659 91.87 31.07 89.101 33.725 83.712 36.027 79.559 37.086 77.648 37.652 75.532 38.475 74.384 39.305 73.428 41.152 74.233 37.303 74.237 38.687 80.016 44.154 94.727 53.331 108.628 57.298 137.781 65.431 173.07 72.953 206.899 78.821 240.78 84.693 273.368 84.491 297.382 85.572 308.732 86.572 331.115 85.313 339.94 93.125 349.05 102.931 339.702 105.046 335.178 115.369 330.344 126.379 358.252 123.925 388.652 117.826 419.065 111.729 475.826 87.28 506.283 83.371 521.642 81.396 535.639 79.821 548.17 80.726 560.605 81.774 570.354 84.998 576.654 89.014 579.49 90.881 582.588 92.986 584.471 97.643 586.729 102.847 582.981 108.749 580.271 110.279 574.002 114.552 572.059 115.055 566.994 118.054 563.362 120.472 551.387 128.212 558.494 129.012 574.599 131.352 591.41 131.813 610.652 132.86 591.242 135.132 575.455 137.388 557.323 136.616 529.041 112.771 586.958 105.823 570.943 97.846 566.723 95.112 558.162 92.108 547.339 91.252 536.559 90.454 522.677 91.884 507.735 93.856 477.435 97.801 426.804 123.702 391.297 131.453 355.799 139.193 328.954 141.061 315.883 139.542 306.014 138.4 300.325 134.333 301.815 130.283 303.288 126.232 314.8 114.925 316.7 112.995 321.113 108.945 324.897 102.526 321.537 99.163 318.173 95.788 309.389 96.462 296.899 96.079 270.026 94.909 243.757 95.927 205.091 89.238 170.886 83.315 135.48 75.771 105.691 67.446 90.639 62.583 69.34 55.788 57.85 45.348 56.531 43.569 54.661 40.779 55.546 36.987 56.398 33.59 58.542 31.801 60.022 30.768 63.198 28.601 73.969 27.808 76.409 27.031 81.136 25.715 84.907 22.6 86.801 21.035 93.506 15.129 87.407 8.996 78.796 7.505 69.447 5.856 60.833 4.956 52.436 3.881 35.41 1.838 19.264 2.437 0 0" fill="#030505"/>
<path transform="matrix(1,0,0,-1,256.6104,296.86454)" d="M0 0C-19.869-5.917-49.54-18.721-49.54-18.721-49.54-18.721-23.065-8.719 .498-5.299 44.444 1.092 76.591 2.97 131.784-10.577 187.894-24.352 244.471-41.72 272.655-33.596 293.999-28.026 326.424 .055 351.715 .18 377.009 .314 450.969-8.158 476.84-11.702 439.652-3.369 358.737 23.808 323.353 9.198 303.256 .901 295.249-11.274 253.071-11.858 215.97-12.365 113.642 15.155 67.235 11.909 49.51 10.678 23.136 6.897 0 0" fill="#030505"/>
<path transform="matrix(1,0,0,-1,200.2358,350.64524)" d="M0 0C24.842-1.744 41.978-2.148 71.905-2.184 104.309-2.228 266.631-1.823 266.631-1.823L533.214 4.433 266.594 9.698C266.594 9.698 104.287 9.496 71.876 9.339 41.956 9.192 24.995 3.735 0 0" fill="#4bb748"/>
</g>
</g>
</svg>
