<?xml version="1.0" standalone="no"?>
<!DOCTYPE svg PUBLIC "-//W3C//DTD SVG 20010904//EN"
        "http://www.w3.org/TR/2001/REC-SVG-20010904/DTD/svg10.dtd">
<svg version="1.0" xmlns="http://www.w3.org/2000/svg"
     width="96.000000pt" height="96.000000pt" viewBox="0 0 96.000000 96.000000"
     preserveAspectRatio="xMidYMid meet">

    <g transform="translate(0.000000,96.000000) scale(0.100000,-0.100000)"
       fill="#000000" stroke="none">
        <path d="M257 858 c-14 -13 -46 -76 -73 -140 l-49 -118 -36 0 c-65 0 -67 -14
-25 -168 63 -233 77 -273 97 -293 18 -18 35 -19 309 -19 274 0 291 1 309 19
20 20 34 60 97 293 42 154 40 168 -25 168 l-36 0 -49 118 c-70 170 -56 162
-296 162 -192 0 -200 -1 -223 -22z m439 -156 l41 -97 -129 -3 c-70 -1 -186 -1
-256 0 l-129 3 41 97 41 98 175 0 175 0 41 -98z m97 -304 c-18 -68 -38 -140
-44 -160 l-10 -38 -259 0 c-238 0 -259 1 -264 18 -3 9 -21 76 -41 147 -20 72
-38 136 -40 143 -3 9 70 12 344 12 l348 0 -34 -122z"/>
        <path d="M291 426 c-19 -22 -10 -126 12 -140 32 -20 52 4 55 68 3 61 -8 86
-38 86 -10 0 -23 -6 -29 -14z"/>
        <path d="M451 426 c-19 -22 -10 -126 12 -140 32 -20 52 4 55 68 3 61 -8 86
-38 86 -10 0 -23 -6 -29 -14z"/>
        <path d="M611 426 c-19 -22 -10 -126 12 -140 32 -20 52 4 55 68 3 61 -8 86
-38 86 -10 0 -23 -6 -29 -14z"/>
    </g>
    <ellipse style="fill: rgb(255, 0, 0); stroke: rgb(0, 0, 0);" cx="60" cy="25" rx="20" ry="20"></ellipse>
</svg>